<svg xmlns="http://www.w3.org/2000/svg" xmlns:xlink="http://www.w3.org/1999/xlink" viewBox="0 0 126.89 95.96"><defs><clipPath id="a" transform="translate(-447.95 -464.73)"><rect x="446.52" y="458.94" width="130.48" height="106.54" style="fill:none"/></clipPath><clipPath id="b" transform="translate(-447.95 -464.73)"><path d="M512,511.15a20,20,0,0,1-9.78-2.75,18.14,18.14,0,0,0,8.21,11l1.84,1c14.08-.94,22.32-10,22.32-21.91v-2.58c-3.35,10.92-11.13,15.77-22.59,15.26" style="fill:none"/></clipPath><linearGradient id="c" x1="198.8" y1="920.71" x2="200" y2="920.71" gradientTransform="matrix(27.06, 0, 0, -27.06, -5324.83, 24955.81)" gradientUnits="userSpaceOnUse"><stop offset="0" stop-color="#6d6e70"/><stop offset="1" stop-color="#a6a8ab"/></linearGradient></defs><title>Ubiquiti logo</title><g style="clip-path:url(#a)"><path d="M533.37,495.52l1.2-3.92V464.76c-14,0-15.5,5.38-15.5,10.52v29.47a25.05,25.05,0,0,1-.46,4.73c7.44-1.36,12.3-6,14.75-14" transform="translate(-447.95 -464.73)"/><rect x="46.39" y="3.1" width="3.1" height="3.06" style="fill:#009fdc"/><rect x="49.49" y="7.72" width="3.1" height="3.07" style="fill:#009fdc"/><rect x="46.41" y="11.58" width="3.07" height="3.06" style="fill:#009fdc"/><rect x="43.31" y="16.18" width="3.06" height="3.06" style="fill:#009fdc"/><rect x="37.09" width="3.1" height="3.1" style="fill:#009fdc"/><path d="M491.24,487h3.09v6.83h3.1V482.44h3.1v22.32c0,10.59,9.27,15.7,9.27,15.7-15.57,0-24.76-9.44-24.76-22V473.21h3.1V490.1h3.1Z" transform="translate(-447.95 -464.73)" style="fill:#009fdc"/></g><g style="clip-path:url(#b)"><rect x="54.26" y="31.16" width="32.37" height="24.49" style="fill:url(#c)"/></g><rect x="43.31" y="6.19" width="3.06" height="3.06" style="fill:#009fdc"/><g style="clip-path:url(#a)"><path d="M527.41,548.19a8.32,8.32,0,0,1-6.19-2.2,8.61,8.61,0,0,1-2.15-6.42V526.64h0c.72,0,3.05.17,3.05,2.36v11.25c.08,3.34,2,5.25,5.25,5.25s5.17-1.92,5.25-5.25V529c0-2.19,2.34-2.36,3.06-2.36h0v12.93A8.59,8.59,0,0,1,533.6,546a8.33,8.33,0,0,1-6.19,2.2" transform="translate(-447.95 -464.73)" style="fill:#58595b"/><path d="M456.28,548.19a8.32,8.32,0,0,1-6.19-2.2,8.59,8.59,0,0,1-2.15-6.42l0-12.93h0c.72,0,3.06.17,3.06,2.36l0,11.25c.08,3.34,2,5.25,5.25,5.25s5.17-1.92,5.25-5.25l0-11.25c0-2.19,2.34-2.36,3.06-2.36h0l0,12.93a8.6,8.6,0,0,1-2.15,6.42,8.33,8.33,0,0,1-6.19,2.2" transform="translate(-447.95 -464.73)" style="fill:#58595b"/><path d="M517.36,547.76a3.22,3.22,0,0,0-.67-2.07,1.74,1.74,0,0,0-1.32-.52h-3.6a10.59,10.59,0,0,0,3-7.72c0-5.19-2.43-10.82-9.24-10.82s-9.24,5.64-9.24,10.82,2.42,10.73,9.22,10.73h0a14.6,14.6,0,0,0,1.61-.17c.33,0,.68-.1,1-.16l.54-.09Zm-11.82-2.27c-5.23,0-6-5-6-8,0-2.42.58-8.14,6-8.14,5.23,0,6,5.13,6,8.14,0,2.42-.59,8-6,8" transform="translate(-447.95 -464.73)" style="fill:#58595b"/><path d="M541,548V529c0-2.19,2.34-2.36,3.06-2.36h0v21a.35.35,0,0,1-.35.35Z" transform="translate(-447.95 -464.73)" style="fill:#58595b"/><path d="M489.19,548.06V529c0-2.19,2.34-2.36,3.06-2.36h0v21.07a.35.35,0,0,1-.35.35Z" transform="translate(-447.95 -464.73)" style="fill:#58595b"/><path d="M565.47,548v-19c0-2.19,2.33-2.36,3-2.36h0v21a.35.35,0,0,1-.35.35Z" transform="translate(-447.95 -464.73)" style="fill:#58595b"/><path d="M547.11,526.69v2.69h6.3V548h2.73a.35.35,0,0,0,.35-.34V529.38h5.74a.35.35,0,0,0,.35-.34v-2.35Z" transform="translate(-447.95 -464.73)" style="fill:#58595b"/><path d="M547.16,526.69v2.69h6.3V548h2.73a.35.35,0,0,0,.35-.34V529.38h5.74a.35.35,0,0,0,.35-.34v-2.35Z" transform="translate(-447.95 -464.73)" style="fill:#58595b"/><path d="M481.09,537l-.26-.08.25-.11a4.86,4.86,0,0,0,2.88-4.45c0-3.45-2.44-5.59-6.7-5.59h-7.4V548h8a8.47,8.47,0,0,0,2.92-.41,5.6,5.6,0,0,0,3.78-5.21c0-1.94-.91-4.64-3.48-5.41m-.36-4.44a2.87,2.87,0,0,1-1.06,2.52,4.44,4.44,0,0,1-2.19.57h-4.55v-6.19h4.37c2.46.09,3.43,1.1,3.43,3.1M478,545.29h-4.9v-7h4.58c1.44,0,3.85.59,3.85,3.5a3.35,3.35,0,0,1-3.52,3.49" transform="translate(-447.95 -464.73)" style="fill:#58595b"/><polygon points="0.42 89.65 1.56 89.65 4.38 94.19 4.39 94.19 4.39 89.65 5.42 89.65 5.42 95.82 4.28 95.82 1.47 91.28 1.45 91.28 1.45 95.82 0.42 95.82 0.42 89.65" style="fill:#58595b"/><polygon points="17.02 89.65 21.46 89.65 21.46 90.58 18.11 90.58 18.11 92.2 21.21 92.2 21.21 93.08 18.11 93.08 18.11 94.88 21.52 94.88 21.52 95.82 17.02 95.82 17.02 89.65" style="fill:#58595b"/><polygon points="32.32 89.65 37.32 89.65 37.32 90.58 35.35 90.58 35.35 95.82 34.27 95.82 34.27 90.58 32.32 90.58 32.32 89.65" style="fill:#58595b"/><polygon points="48.02 89.65 49.12 89.65 50.23 94.37 50.25 94.37 51.49 89.65 52.6 89.65 53.81 94.37 53.82 94.37 54.97 89.65 56.07 89.65 54.37 95.82 53.27 95.82 52.03 91.1 52.02 91.1 50.76 95.82 49.64 95.82 48.02 89.65" style="fill:#58595b"/><path d="M517.53,554.23a2.85,2.85,0,0,1,1.24.26,2.78,2.78,0,0,1,.93.7,3.08,3.08,0,0,1,.58,1,3.92,3.92,0,0,1,0,2.5,3.08,3.08,0,0,1-.58,1,2.73,2.73,0,0,1-.93.69,3.14,3.14,0,0,1-2.48,0,2.74,2.74,0,0,1-.93-.69,3.14,3.14,0,0,1-.58-1,3.94,3.94,0,0,1,0-2.5,3.14,3.14,0,0,1,.58-1,2.78,2.78,0,0,1,.93-.7,2.87,2.87,0,0,1,1.24-.26m0,.88a1.72,1.72,0,0,0-.85.2,1.68,1.68,0,0,0-.58.53,2.39,2.39,0,0,0-.33.76,3.48,3.48,0,0,0,0,1.73,2.39,2.39,0,0,0,.33.76,1.68,1.68,0,0,0,.58.53,1.92,1.92,0,0,0,1.7,0,1.69,1.69,0,0,0,.58-.53,2.39,2.39,0,0,0,.33-.76,3.44,3.44,0,0,0,0-1.73,2.39,2.39,0,0,0-.33-.76,1.69,1.69,0,0,0-.58-.53,1.72,1.72,0,0,0-.85-.2" transform="translate(-447.95 -464.73)" style="fill:#58595b"/><path d="M531.78,554.38h2.95a2.29,2.29,0,0,1,1.53.44,1.54,1.54,0,0,1,.51,1.23,1.79,1.79,0,0,1-.13.73,1.58,1.58,0,0,1-.3.47,1.16,1.16,0,0,1-.34.25l-.25.11v0a1.09,1.09,0,0,1,.3.09.89.89,0,0,1,.3.22,1.24,1.24,0,0,1,.23.39,1.72,1.72,0,0,1,.09.61,5.32,5.32,0,0,0,.08,1,1.29,1.29,0,0,0,.25.64h-1.16a1,1,0,0,1-.14-.44c0-.16,0-.32,0-.47a4.42,4.42,0,0,0-.05-.73,1.28,1.28,0,0,0-.19-.51.8.8,0,0,0-.38-.3,1.65,1.65,0,0,0-.61-.1h-1.59v2.54h-1.08Zm1.08,2.81h1.77a1.13,1.13,0,0,0,.79-.25,1,1,0,0,0,.27-.74,1.14,1.14,0,0,0-.09-.48.7.7,0,0,0-.24-.29.86.86,0,0,0-.35-.14,2.33,2.33,0,0,0-.4,0h-1.75Z" transform="translate(-447.95 -464.73)" style="fill:#58595b"/><polygon points="100.27 89.65 101.35 89.65 101.35 92.46 104.1 89.65 105.43 89.65 102.97 92.11 105.6 95.82 104.25 95.82 102.23 92.87 101.35 93.74 101.35 95.82 100.27 95.82 100.27 89.65" style="fill:#58595b"/><path d="M565,558.49a1.39,1.39,0,0,0,.12.61,1.09,1.09,0,0,0,.34.41,1.39,1.39,0,0,0,.5.23,2.39,2.39,0,0,0,.61.07,1.91,1.91,0,0,0,.61-.08,1.21,1.21,0,0,0,.41-.21.78.78,0,0,0,.22-.3.91.91,0,0,0,.07-.34.73.73,0,0,0-.16-.52.9.9,0,0,0-.35-.24,7.17,7.17,0,0,0-.76-.23l-1.08-.28a2.33,2.33,0,0,1-.66-.27,1.6,1.6,0,0,1-.42-.38,1.32,1.32,0,0,1-.22-.44,1.77,1.77,0,0,1-.06-.47,1.6,1.6,0,0,1,.19-.81,1.74,1.74,0,0,1,.51-.56,2.28,2.28,0,0,1,.73-.33,3.25,3.25,0,0,1,1.73,0,2.22,2.22,0,0,1,.75.38,1.85,1.85,0,0,1,.51.62,1.82,1.82,0,0,1,.19.85h-1.08a1,1,0,0,0-.41-.84,1.62,1.62,0,0,0-.93-.25,2.09,2.09,0,0,0-.39,0,1.25,1.25,0,0,0-.36.13.83.83,0,0,0-.27.25.69.69,0,0,0-.11.39.65.65,0,0,0,.2.51,1.3,1.3,0,0,0,.53.28l.27.07.53.14.58.15.4.11a1.8,1.8,0,0,1,.53.26,1.67,1.67,0,0,1,.38.38,1.49,1.49,0,0,1,.22.45,1.61,1.61,0,0,1,.07.48,1.73,1.73,0,0,1-.21.89,1.79,1.79,0,0,1-.56.6,2.46,2.46,0,0,1-.79.34,3.76,3.76,0,0,1-.9.11,3.61,3.61,0,0,1-1-.13,2.3,2.3,0,0,1-.81-.4,2,2,0,0,1-.55-.69,2.31,2.31,0,0,1-.22-1Z" transform="translate(-447.95 -464.73)" style="fill:#58595b"/><path d="M572.87,526.68a2,2,0,1,1-2,2,2,2,0,0,1,2-2m0,3.64a1.68,1.68,0,1,0-1.62-1.69,1.62,1.62,0,0,0,1.62,1.69m-.77-2.83H573c.55,0,.8.22.8.66a.59.59,0,0,1-.6.62l.66,1h-.38l-.62-1h-.38v1h-.36Zm.36,1h.37c.32,0,.6,0,.6-.38s-.26-.35-.5-.35h-.47Z" transform="translate(-447.95 -464.73)" style="fill:#58595b"/></g></svg>